<svg width="32" height="40" viewBox="0 0 32 40" fill="none" xmlns="http://www.w3.org/2000/svg">
<path d="M14.8884 38.8101C15.2128 39.0417 15.6014 39.1663 16.0001 39.1663C16.3987 39.1663 16.7873 39.0417 17.1117 38.8101C17.6944 38.398 31.389 28.5099 31.3334 16.1666C31.3334 7.71217 24.4545 0.833252 16.0001 0.833252C7.54565 0.833252 0.666734 7.71217 0.666734 16.157C0.61115 28.5099 14.3057 38.398 14.8884 38.8101ZM16.0001 4.66659C22.3423 4.66659 27.5001 9.82434 27.5001 16.1762C27.5403 24.6823 19.0897 32.3203 16.0001 34.8253C12.9123 32.3183 4.45982 24.6785 4.50007 16.1666C4.50007 9.82434 9.65782 4.66659 16.0001 4.66659Z" fill="white"/>
</svg>
